<?xml version="1.0" encoding="UTF-8"?>
<svg xmlns="http://www.w3.org/2000/svg" xmlns:xlink="http://www.w3.org/1999/xlink" width="12pt" height="12pt" viewBox="0 0 12 12" version="1.1">
<g id="surface1">
<path style=" stroke:none;fill-rule:nonzero;fill:rgb(0%,0%,0%);fill-opacity:1;" d="M 1.128906 0.128906 C 0.734375 0.214844 0.355469 0.515625 0.183594 0.871094 C -0.207031 1.65625 0.179688 2.589844 0.988281 2.847656 C 1.339844 2.957031 1.636719 2.949219 1.972656 2.816406 C 2.527344 2.601562 2.902344 1.988281 2.851562 1.402344 C 2.832031 1.210938 2.746094 0.933594 2.652344 0.777344 C 2.5625 0.625 2.308594 0.371094 2.15625 0.285156 C 1.855469 0.121094 1.445312 0.0546875 1.128906 0.128906 Z M 1.128906 0.128906 "/>
<path style=" stroke:none;fill-rule:nonzero;fill:rgb(0%,0%,0%);fill-opacity:1;" d="M 5.671875 0.132812 C 5.269531 0.214844 4.894531 0.511719 4.714844 0.890625 C 4.449219 1.453125 4.566406 2.113281 5.007812 2.53125 C 5.292969 2.800781 5.585938 2.914062 5.976562 2.914062 C 6.378906 2.914062 6.699219 2.785156 6.964844 2.519531 C 7.425781 2.066406 7.523438 1.40625 7.222656 0.835938 C 6.941406 0.300781 6.285156 -0.00390625 5.671875 0.132812 Z M 5.671875 0.132812 "/>
<path style=" stroke:none;fill-rule:nonzero;fill:rgb(0%,0%,0%);fill-opacity:1;" d="M 10.289062 0.132812 C 9.785156 0.238281 9.34375 0.675781 9.222656 1.175781 C 9.183594 1.355469 9.179688 1.636719 9.214844 1.808594 C 9.257812 2.019531 9.40625 2.300781 9.570312 2.480469 C 9.746094 2.660156 9.910156 2.769531 10.152344 2.855469 C 10.386719 2.933594 10.757812 2.941406 11.003906 2.863281 C 11.433594 2.734375 11.792969 2.386719 11.933594 1.972656 C 11.980469 1.839844 11.988281 1.773438 11.988281 1.5 C 11.984375 1.234375 11.980469 1.164062 11.933594 1.046875 C 11.683594 0.367188 10.988281 -0.0195312 10.289062 0.132812 Z M 10.289062 0.132812 "/>
<path style=" stroke:none;fill-rule:nonzero;fill:rgb(0%,0%,0%);fill-opacity:1;" d="M 1.089844 4.625 C 0.675781 4.722656 0.328125 4.996094 0.140625 5.371094 C 0.0390625 5.585938 0 5.746094 0 6 C 0 6.421875 0.113281 6.699219 0.410156 7 C 0.707031 7.292969 1.003906 7.417969 1.429688 7.410156 C 1.972656 7.40625 2.4375 7.105469 2.667969 6.628906 C 2.785156 6.378906 2.820312 6.199219 2.808594 5.925781 C 2.773438 5.328125 2.417969 4.867188 1.832031 4.660156 C 1.660156 4.597656 1.285156 4.582031 1.089844 4.625 Z M 1.089844 4.625 "/>
<path style=" stroke:none;fill-rule:nonzero;fill:rgb(0%,0%,0%);fill-opacity:1;" d="M 5.582031 4.640625 C 5.027344 4.785156 4.621094 5.253906 4.542969 5.832031 C 4.425781 6.734375 5.207031 7.523438 6.113281 7.410156 C 6.449219 7.363281 6.707031 7.238281 6.949219 6.996094 C 7.382812 6.5625 7.480469 5.890625 7.191406 5.339844 C 7.09375 5.148438 6.804688 4.859375 6.613281 4.761719 C 6.304688 4.597656 5.917969 4.550781 5.582031 4.640625 Z M 5.582031 4.640625 "/>
<path style=" stroke:none;fill-rule:nonzero;fill:rgb(0%,0%,0%);fill-opacity:1;" d="M 10.199219 4.640625 C 9.945312 4.707031 9.761719 4.816406 9.5625 5.015625 C 9.355469 5.222656 9.234375 5.441406 9.179688 5.722656 C 9.113281 6.054688 9.144531 6.332031 9.304688 6.652344 C 9.476562 7.003906 9.8125 7.269531 10.195312 7.375 C 10.398438 7.425781 10.75 7.425781 10.933594 7.375 C 11.800781 7.121094 12.214844 6.179688 11.820312 5.367188 C 11.714844 5.152344 11.445312 4.875 11.230469 4.761719 C 10.921875 4.597656 10.535156 4.550781 10.199219 4.640625 Z M 10.199219 4.640625 "/>
<path style=" stroke:none;fill-rule:nonzero;fill:rgb(0%,0%,0%);fill-opacity:1;" d="M 1.195312 9.09375 C 0.890625 9.148438 0.65625 9.277344 0.429688 9.503906 C -0.03125 9.964844 -0.109375 10.667969 0.238281 11.242188 C 0.351562 11.429688 0.59375 11.652344 0.800781 11.75 C 1.8125 12.253906 2.976562 11.433594 2.835938 10.316406 C 2.761719 9.753906 2.371094 9.289062 1.828125 9.132812 C 1.671875 9.085938 1.339844 9.066406 1.195312 9.09375 Z M 1.195312 9.09375 "/>
<path style=" stroke:none;fill-rule:nonzero;fill:rgb(0%,0%,0%);fill-opacity:1;" d="M 5.722656 9.09375 C 5.183594 9.191406 4.730469 9.628906 4.601562 10.167969 C 4.574219 10.277344 4.566406 10.390625 4.574219 10.558594 C 4.59375 10.941406 4.71875 11.230469 4.976562 11.484375 C 5.761719 12.261719 7.082031 11.898438 7.351562 10.828125 C 7.402344 10.621094 7.386719 10.214844 7.316406 10.027344 C 7.167969 9.613281 6.808594 9.261719 6.402344 9.136719 C 6.226562 9.085938 5.902344 9.066406 5.722656 9.09375 Z M 5.722656 9.09375 "/>
<path style=" stroke:none;fill-rule:nonzero;fill:rgb(0%,0%,0%);fill-opacity:1;" d="M 10.339844 9.09375 C 9.851562 9.183594 9.425781 9.546875 9.253906 10.027344 C 9.183594 10.214844 9.167969 10.621094 9.21875 10.828125 C 9.40625 11.570312 10.140625 12.027344 10.886719 11.871094 C 11.789062 11.679688 12.265625 10.675781 11.847656 9.84375 C 11.691406 9.527344 11.355469 9.242188 11.019531 9.136719 C 10.84375 9.085938 10.519531 9.066406 10.339844 9.09375 Z M 10.339844 9.09375 "/>
</g>
</svg>
